<svg fill="#000000" viewBox="0 0 32.00 32.00" version="1.1" xmlns="http://www.w3.org/2000/svg" stroke="#000000" stroke-width="0.00032" transform="rotate(0)"><g id="SVGRepo_bgCarrier" stroke-width="0"></g><g id="SVGRepo_tracerCarrier" stroke-linecap="round" stroke-linejoin="round"></g><g id="SVGRepo_iconCarrier"> <title>bars</title> <path d="M2 8.749h28c0.414 0 0.75-0.336 0.75-0.75s-0.336-0.75-0.75-0.75v0h-28c-0.414 0-0.75 0.336-0.75 0.75s0.336 0.75 0.75 0.75v0zM30 15.25h-28c-0.414 0-0.75 0.336-0.75 0.75s0.336 0.75 0.75 0.75v0h28c0.414 0 0.75-0.336 0.75-0.75s-0.336-0.75-0.75-0.75v0zM30 23.25h-28c-0.414 0-0.75 0.336-0.75 0.75s0.336 0.75 0.75 0.75v0h28c0.414 0 0.75-0.336 0.75-0.75s-0.336-0.75-0.75-0.75v0z"></path> </g></svg>