<?xml version="1.0" standalone="no"?><svg xmlns="http://www.w3.org/2000/svg" viewBox="0 0 1440 320"><path fill="#000000" fill-opacity="1" d="M0,224L0,32L68.6,32L68.6,256L137.1,256L137.1,288L205.7,288L205.7,160L274.3,160L274.3,96L342.9,96L342.9,160L411.4,160L411.4,160L480,160L480,96L548.6,96L548.6,64L617.1,64L617.1,160L685.7,160L685.7,160L754.3,160L754.3,224L822.9,224L822.9,256L891.4,256L891.4,32L960,32L960,192L1028.6,192L1028.6,64L1097.1,64L1097.1,288L1165.7,288L1165.7,256L1234.3,256L1234.3,192L1302.9,192L1302.9,256L1371.4,256L1371.4,160L1440,160L1440,320L1371.4,320L1371.4,320L1302.9,320L1302.9,320L1234.3,320L1234.3,320L1165.7,320L1165.7,320L1097.1,320L1097.1,320L1028.6,320L1028.6,320L960,320L960,320L891.4,320L891.4,320L822.9,320L822.9,320L754.3,320L754.3,320L685.7,320L685.7,320L617.1,320L617.1,320L548.6,320L548.6,320L480,320L480,320L411.4,320L411.4,320L342.9,320L342.9,320L274.3,320L274.3,320L205.7,320L205.7,320L137.1,320L137.1,320L68.6,320L68.6,320L0,320L0,320Z"></path></svg>